<?xml version="1.0" encoding="utf-8"?>
<!-- Generator: Adobe Illustrator 23.1.1, SVG Export Plug-In . SVG Version: 6.00 Build 0)  -->
<svg version="1.1" id="Capa_1" xmlns="http://www.w3.org/2000/svg" xmlns:xlink="http://www.w3.org/1999/xlink" x="0px" y="0px"
	 viewBox="0 0 100 100" style="enable-background:new 0 0 100 100;" xml:space="preserve">
<style type="text/css">
	.st0{fill:#2573C2;}
	.st1{fill:#FFFFFF;}
</style>
<g>
	<circle class="st0" cx="50" cy="50" r="50"/>
	<g>
		<path class="st1" d="M82.6,36.8c-0.1-1.1-0.4-2.2-1-3.2c-0.5-1-1.4-1.8-2.4-2.2c-1.1-0.5-2.2-0.8-3.4-0.8H31.4l-3.2,9.5h40.2
			l-6.3,19.5H21.9l-3.2,9.5h44.6c1.3,0,2.6-0.3,3.9-0.8c1.2-0.7,2.7-1.4,3.9-2.4c1.2-0.9,2.2-2,3.2-3.2c0.8-1.2,1.4-2.4,2-3.7
			l5.9-18.5C82.7,39.5,82.8,38.2,82.6,36.8L82.6,36.8z"/>
		<path class="st1" d="M44.1,45.6H20.5l-3.2,8.8h23.9L44.1,45.6z"/>
	</g>
</g>
</svg>
